<svg xmlns="http://www.w3.org/2000/svg" width="32" height="32" viewBox="0 0 32 32" fill="none">
  <circle cx="16" cy="16" r="15" stroke="#6327FF" stroke-width="2"/>
  <circle cx="16" cy="16" r="8" fill="#6327FF" fill-opacity="0.3"/>
  <path d="M16 4C15.4477 4 15 4.44772 15 5V9C15 9.55228 15.4477 10 16 10C16.5523 10 17 9.55228 17 9V5C17 4.44772 16.5523 4 16 4Z" fill="#6327FF"/>
  <path d="M16 22C15.4477 22 15 22.4477 15 23V27C15 27.5523 15.4477 28 16 28C16.5523 28 17 27.5523 17 27V23C17 22.4477 16.5523 22 16 22Z" fill="#6327FF"/>
  <path d="M28 16C28 15.4477 27.5523 15 27 15H23C22.4477 15 22 15.4477 22 16C22 16.5523 22.4477 17 23 17H27C27.5523 17 28 16.5523 28 16Z" fill="#6327FF"/>
  <path d="M10 16C10 15.4477 9.55228 15 9 15H5C4.44772 15 4 15.4477 4 16C4 16.5523 4.44772 17 5 17H9C9.55228 17 10 16.5523 10 16Z" fill="#6327FF"/>
  <path d="M9.17157 9.17157C8.78105 9.5621 8.78105 10.1952 9.17157 10.5858L12 13.4142C12.3905 13.8047 13.0237 13.8047 13.4142 13.4142C13.8047 13.0237 13.8047 12.3905 13.4142 12L10.5858 9.17157C10.1952 8.78105 9.5621 8.78105 9.17157 9.17157Z" fill="#6327FF"/>
  <path d="M22.8284 9.17157C22.4379 8.78105 21.8047 8.78105 21.4142 9.17157L18.5858 12C18.1953 12.3905 18.1953 13.0237 18.5858 13.4142C18.9763 13.8047 19.6095 13.8047 20 13.4142L22.8284 10.5858C23.219 10.1952 23.219 9.5621 22.8284 9.17157Z" fill="#6327FF"/>
</svg>